<mxfile host="65bd71144e">
    <diagram id="54l9XFI_byiUcIVfojU-" name="Page-1">
        <mxGraphModel dx="2001" dy="604" grid="1" gridSize="10" guides="1" tooltips="1" connect="1" arrows="1" fold="1" page="1" pageScale="1" pageWidth="850" pageHeight="1100" math="0" shadow="0">
            <root>
                <mxCell id="0"/>
                <mxCell id="1" parent="0"/>
                <mxCell id="19" style="edgeStyle=none;html=1;fontSize=20;strokeWidth=3;fillColor=#0050ef;strokeColor=#001DBC;" edge="1" parent="1" source="3" target="18">
                    <mxGeometry relative="1" as="geometry"/>
                </mxCell>
                <mxCell id="3" value="&lt;b&gt;&lt;font style=&quot;font-size: 22px&quot;&gt;Category Object&lt;/font&gt;&lt;/b&gt;" style="rounded=0;whiteSpace=wrap;html=1;" vertex="1" parent="1">
                    <mxGeometry x="240" width="430" height="60" as="geometry"/>
                </mxCell>
                <mxCell id="5" value="" style="shape=cylinder3;whiteSpace=wrap;html=1;boundedLbl=1;backgroundOutline=1;size=15;fontSize=22;" vertex="1" parent="1">
                    <mxGeometry x="-130" y="110" width="270" height="410" as="geometry"/>
                </mxCell>
                <mxCell id="6" value="" style="curved=1;endArrow=classic;html=1;fontSize=22;entryX=0.5;entryY=0;entryDx=0;entryDy=0;entryPerimeter=0;exitX=0;exitY=0.5;exitDx=0;exitDy=0;fillColor=#6a00ff;strokeColor=#3700CC;strokeWidth=3;" edge="1" parent="1" source="3" target="5">
                    <mxGeometry width="50" height="50" relative="1" as="geometry">
                        <mxPoint x="9" y="92" as="sourcePoint"/>
                        <mxPoint x="59" y="42" as="targetPoint"/>
                        <Array as="points">
                            <mxPoint x="59" y="92"/>
                            <mxPoint x="9" y="42"/>
                        </Array>
                    </mxGeometry>
                </mxCell>
                <mxCell id="7" value="&#10;Secret parameters" style="swimlane;fontStyle=0;childLayout=stackLayout;horizontal=1;startSize=40;horizontalStack=0;resizeParent=1;resizeParentMax=0;resizeLast=0;collapsible=1;marginBottom=0;fontSize=20;verticalAlign=bottom;labelPosition=center;verticalLabelPosition=middle;align=center;" vertex="1" parent="1">
                    <mxGeometry x="-90" y="160" width="200" height="160" as="geometry"/>
                </mxCell>
                <mxCell id="8" value="container" style="text;strokeColor=none;fillColor=none;align=left;verticalAlign=middle;spacingLeft=4;spacingRight=4;overflow=hidden;points=[[0,0.5],[1,0.5]];portConstraint=eastwest;rotatable=0;fontSize=22;" vertex="1" parent="7">
                    <mxGeometry y="40" width="200" height="30" as="geometry"/>
                </mxCell>
                <mxCell id="9" value="products" style="text;strokeColor=none;fillColor=none;align=left;verticalAlign=middle;spacingLeft=4;spacingRight=4;overflow=hidden;points=[[0,0.5],[1,0.5]];portConstraint=eastwest;rotatable=0;fontSize=22;" vertex="1" parent="7">
                    <mxGeometry y="70" width="200" height="30" as="geometry"/>
                </mxCell>
                <mxCell id="10" value="categoryId" style="text;strokeColor=none;fillColor=none;align=left;verticalAlign=middle;spacingLeft=4;spacingRight=4;overflow=hidden;points=[[0,0.5],[1,0.5]];portConstraint=eastwest;rotatable=0;fontSize=22;" vertex="1" parent="7">
                    <mxGeometry y="100" width="200" height="30" as="geometry"/>
                </mxCell>
                <mxCell id="17" style="text;strokeColor=none;fillColor=none;align=left;verticalAlign=middle;spacingLeft=4;spacingRight=4;overflow=hidden;points=[[0,0.5],[1,0.5]];portConstraint=eastwest;rotatable=0;fontSize=22;" vertex="1" parent="7">
                    <mxGeometry y="130" width="200" height="30" as="geometry"/>
                </mxCell>
                <mxCell id="18" value="Main methods" style="swimlane;fontSize=20;" vertex="1" parent="1">
                    <mxGeometry x="240" y="90" width="430" height="160" as="geometry"/>
                </mxCell>
                <mxCell id="20" value="List" style="swimlane;fontStyle=0;childLayout=stackLayout;horizontal=1;startSize=30;horizontalStack=0;resizeParent=1;resizeParentMax=0;resizeLast=0;collapsible=1;marginBottom=0;fontSize=20;" vertex="1" parent="18">
                    <mxGeometry x="100" y="60" width="235" height="60" as="geometry"/>
                </mxCell>
                <mxCell id="21" value="CreateContainer" style="text;strokeColor=none;fillColor=none;align=left;verticalAlign=middle;spacingLeft=4;spacingRight=4;overflow=hidden;points=[[0,0.5],[1,0.5]];portConstraint=eastwest;rotatable=0;fontSize=20;" vertex="1" parent="20">
                    <mxGeometry y="30" width="235" height="30" as="geometry"/>
                </mxCell>
            </root>
        </mxGraphModel>
    </diagram>
</mxfile>